<svg width="16" height="16" viewBox="0 0 16 16" fill="none" xmlns="http://www.w3.org/2000/svg">
<g clip-path="url(#clip0_2982_73757)">
<path d="M3.52845 6.47139L7.52845 10.4714C7.65347 10.5964 7.82301 10.6666 7.99978 10.6666C8.17656 10.6666 8.3461 10.5964 8.47112 10.4714L12.4711 6.47139C12.5348 6.40989 12.5856 6.33633 12.6205 6.25499C12.6555 6.17365 12.6738 6.08617 12.6746 5.99765C12.6754 5.90914 12.6585 5.82135 12.625 5.73942C12.5915 5.65749 12.542 5.58305 12.4794 5.52046C12.4168 5.45786 12.3424 5.40836 12.2604 5.37484C12.1785 5.34132 12.0907 5.32445 12.0022 5.32522C11.9137 5.32599 11.8262 5.34438 11.7448 5.37932C11.6635 5.41426 11.5899 5.46505 11.5284 5.52872L7.99978 9.05739L4.47112 5.52872C4.34538 5.40728 4.17698 5.34009 4.00218 5.3416C3.82738 5.34312 3.66018 5.41324 3.53657 5.53684C3.41297 5.66045 3.34285 5.82766 3.34133 6.00245C3.33981 6.17725 3.40701 6.34565 3.52845 6.47139Z" fill="#616368"/>
</g>
<defs>
<clipPath id="clip0_2982_73757">
<rect width="16" height="16" fill="white" transform="matrix(0 -1 1 0 0 16)"/>
</clipPath>
</defs>
</svg>
